<svg xmlns="http://www.w3.org/2000/svg" width="16" height="20" fill="none" viewBox="0 0 16 20">
    <path fill="#fff" d="M16 4.996L10.4 0v3.795c0 .318.142.624.395.849.252.225.594.352.951.352H16z"/>
    <path fill="#fff" d="M1.288 0C.947 0 .619.122.378.337A1.091 1.091 0 0 0 0 1.149V18.7c0 .305.136.597.378.812.241.216.569.337.91.337h13.115c.341 0 .669-.121.91-.337.242-.215.377-.507.378-.812V5.85h-4.567a2.121 2.121 0 0 1-1.407-.52 1.687 1.687 0 0 1-.584-1.256V0H1.288zm8.84 10.969c0-.083.038-.163.104-.222a.374.374 0 0 1 .248-.092h1.756c.094 0 .183.033.249.092a.298.298 0 0 1 .103.222v5.745a.298.298 0 0 1-.103.222.374.374 0 0 1-.248.092H10.48a.374.374 0 0 1-.248-.092.298.298 0 0 1-.103-.222V10.97zm-4.566 5.745a.297.297 0 0 1-.103.222.374.374 0 0 1-.248.092H3.454a.374.374 0 0 1-.248-.092.297.297 0 0 1-.103-.222v-4.7c0-.084.037-.163.103-.222a.374.374 0 0 1 .248-.092h1.757c.093 0 .182.033.248.092a.297.297 0 0 1 .103.221v4.701zm3.513 0a.297.297 0 0 1-.103.222.374.374 0 0 1-.248.092H6.967a.374.374 0 0 1-.248-.092.297.297 0 0 1-.103-.222V8.88c0-.083.037-.162.103-.221a.374.374 0 0 1 .248-.092h1.757c.093 0 .182.033.248.092a.297.297 0 0 1 .103.221v7.835z"/>
</svg>
