<svg xmlns="http://www.w3.org/2000/svg" width="16" height="16" fill="none" viewBox="0 0 16 16">
    <path fill="#fff" d="M12.325.475A1.537 1.537 0 0 0 11.2 0H4.8c-.433 0-.808.158-1.125.475A1.537 1.537 0 0 0 3.2 1.6v12.8c0 .433.158.808.475 1.125.317.317.692.475 1.125.475h6.4c.433 0 .808-.159 1.125-.475.317-.317.475-.692.475-1.125V1.6c0-.433-.158-.808-.475-1.125zM7 1.6h2c.134 0 .2.067.2.2S9.133 2 9 2H7c-.133 0-.2-.067-.2-.2s.067-.2.2-.2zm1.706 13.506A.964.964 0 0 1 8 15.4a.964.964 0 0 1-.706-.294A.964.964 0 0 1 7 14.4c0-.275.098-.51.294-.706A.964.964 0 0 1 8 13.4c.275 0 .51.098.706.294A.963.963 0 0 1 9 14.4c0 .275-.098.51-.294.706zM11.6 12.4c0 .108-.04.202-.119.281a.384.384 0 0 1-.28.119H4.8a.385.385 0 0 1-.281-.119.384.384 0 0 1-.119-.28V3.6c0-.11.04-.203.119-.282A.385.385 0 0 1 4.8 3.2h6.4c.108 0 .202.04.281.119.08.079.119.173.119.281v8.8z"/>
</svg>
