<svg xmlns="http://www.w3.org/2000/svg" width="16" height="16" fill="none" viewBox="0 0 16 16">
    <path fill="#fff" d="M15.108 15.408L13.84 10.77a.469.469 0 0 0-.18-.259l-3.068-2.185a3.625 3.625 0 0 0 1.028-2.523c0-1.89.013-1.994-.043-2.339C11.557 1.487 10.057 0 8.073 0h-.146C5.942 0 4.443 1.487 4.422 3.465c-.055.345-.042.449-.042 2.339 0 .948.375 1.853 1.027 2.523L2.34 10.512a.47.47 0 0 0-.18.258L.892 15.409a.469.469 0 0 0 .452.592H7.53v-4.954L8 10.738l.469.308V16h6.187a.469.469 0 0 0 .452-.592zM7.694 1.518h.612a.469.469 0 0 1 0 .938h-.612a.469.469 0 0 1 0-.937zM7.53 9.926l-1.031.677-1.375-.922 1.053-.75c.43.25.895.401 1.353.46v.535zM8 8.482a2.682 2.682 0 0 1-2.683-2.678v-.846l.251.367a.469.469 0 0 0 .387.204h4.09c.154 0 .299-.076.386-.204l.252-.367v.846A2.682 2.682 0 0 1 8 8.482zm.469 1.443V9.39a3.602 3.602 0 0 0 1.353-.46l1.053.75-1.375.922-1.031-.677zm3.513 4.078h-1.644a.469.469 0 1 1 0-.938h1.644a.469.469 0 0 1 0 .938z"/>
</svg>
