<svg xmlns="http://www.w3.org/2000/svg" width="16" height="16" fill="none" viewBox="0 0 16 16">
    <path fill="#fff" d="M9.655 3.579a2.907 2.907 0 0 1 1.353 2.16 2.346 2.346 0 1 0-1.353-2.16zM8.118 8.383a2.347 2.347 0 1 0 0-4.693 2.347 2.347 0 0 0 0 4.693zm.995.16h-1.99a3.008 3.008 0 0 0-3.005 3.005v2.435l.006.038.168.052c1.58.495 2.954.66 4.085.66 2.208 0 3.488-.63 3.567-.67l.156-.08h.017v-2.435a3.007 3.007 0 0 0-3.004-3.005zm3.883-2.422H11.02a2.892 2.892 0 0 1-.893 2.014 3.57 3.57 0 0 1 2.55 3.416v.75c1.951-.07 3.075-.624 3.15-.66l.156-.08H16V9.125a3.008 3.008 0 0 0-3.004-3.004zM4 5.96c.46 0 .887-.134 1.248-.362A2.904 2.904 0 0 1 6.34 3.747c.002-.044.007-.088.007-.132A2.346 2.346 0 1 0 4 5.96zm2.108 2.174a2.894 2.894 0 0 1-.892-2.003c-.073-.006-.146-.011-.22-.011H3.004A3.008 3.008 0 0 0 0 9.125v2.435l.006.038.168.053c1.268.396 2.4.578 3.383.636v-.736a3.57 3.57 0 0 1 2.55-3.416z"/>
</svg>
