<svg xmlns="http://www.w3.org/2000/svg" width="16" height="16" fill="none" viewBox="0 0 16 16">
    <g fill="#fff" clip-path="url(#a)">
        <path d="M7 5.333H5.666a.333.333 0 0 0-.333.334v4c0 .184.15.333.333.333H7c.184 0 .333-.15.333-.333v-4A.333.333 0 0 0 7 5.333zM4.333 7.333H3a.333.333 0 0 0-.333.334v2c0 .184.149.333.333.333h1.333c.184 0 .334-.15.334-.333v-2a.333.333 0 0 0-.334-.334zM9.666 3.333H8.333A.333.333 0 0 0 8 3.667v6c0 .184.15.333.333.333h1.333c.184 0 .334-.15.334-.333v-6a.333.333 0 0 0-.334-.334z"/>
        <path d="M15.805 14.863l-3.98-3.98a6.632 6.632 0 0 0 1.508-4.216A6.674 6.674 0 0 0 6.667.001 6.674 6.674 0 0 0 0 6.667a6.674 6.674 0 0 0 6.667 6.667 6.633 6.633 0 0 0 4.216-1.508l3.979 3.98a.665.665 0 0 0 .943 0 .666.666 0 0 0 0-.943zM6.667 12a5.34 5.34 0 0 1-5.334-5.334 5.34 5.34 0 0 1 5.334-5.333A5.34 5.34 0 0 1 12 6.667a5.34 5.34 0 0 1-5.333 5.334z"/>
    </g>
    <defs>
        <clipPath id="a">
            <path fill="#fff" d="M0 0h16v16H0z"/>
        </clipPath>
    </defs>
</svg>
