<svg xmlns="http://www.w3.org/2000/svg" width="16" height="16" fill="none" viewBox="0 0 16 16">
    <g fill="#fff" clip-path="url(#a)">
        <path d="M5.288 3.802a.54.54 0 0 0 .384-.159l1.791-1.791v8.724a.543.543 0 0 0 1.085 0V1.851l1.78 1.78a.542.542 0 0 0 .767-.766L8.39.159A.53.53 0 0 0 8.306.09C8.293.082 8.28.076 8.266.069 8.248.059 8.23.049 8.213.04 8.195.034 8.177.03 8.159.024L8.112.01a.538.538 0 0 0-.213 0c-.016.004-.03.01-.047.014-.018.006-.036.01-.054.017-.019.008-.035.018-.053.028-.013.007-.027.013-.04.022a.556.556 0 0 0-.083.068L4.905 2.876a.542.542 0 0 0 .383.926z"/>
        <path d="M9.085 4.339v6.237a1.085 1.085 0 0 1-2.17 0V4.34H2.034V16h11.932V4.339H9.085z"/>
    </g>
    <defs>
        <clipPath id="a">
            <path fill="#fff" d="M0 0h16v16H0z"/>
        </clipPath>
    </defs>
</svg>
