<svg xmlns="http://www.w3.org/2000/svg" width="16" height="16" fill="none" viewBox="0 0 16 16">
    <path fill="#fff" d="M7.805 9.184h-.39a.365.365 0 0 1-.365-.366c0-.074.03-.146.084-.199.226-.22.416-.516.554-.835.028.02.058.036.092.036.219 0 .476-.483.476-.812 0-.33-.03-.596-.25-.596a.337.337 0 0 0-.08.011c-.016-.892-.241-2.006-1.605-2.006-1.422 0-1.588 1.112-1.604 2.003-.02-.004-.04-.008-.058-.008-.22 0-.25.267-.25.596 0 .329.257.812.476.812a.15.15 0 0 0 .076-.021c.137.314.325.604.548.822a.276.276 0 0 1 .084.198.366.366 0 0 1-.366.366h-.39c-.832 0-1.507.675-1.507 1.507v.418c0 .263.213.476.476.476h5.03a.476.476 0 0 0 .476-.476v-.418c0-.833-.675-1.508-1.507-1.508zM12.318 5.048H8.1c.121.27.208.601.245 1.012.09.055.157.145.212.253h3.761a.352.352 0 0 0 .353-.353V5.4a.353.353 0 0 0-.353-.352z"/>
    <path fill="#fff" d="M12.318 7.353H8.643c-.1.377-.345.77-.685.876-.01.019-.021.035-.032.053v.336h4.391a.353.353 0 0 0 .353-.353v-.56a.351.351 0 0 0-.352-.352zM12.318 9.658H9.449c.19.3.301.653.301 1.033v.232h2.568a.352.352 0 0 0 .353-.353v-.56a.352.352 0 0 0-.353-.352z"/>
    <path fill="#fff" d="M13.834 1.531H2.167C.97 1.531 0 2.501 0 3.698v8.604C0 13.5.97 14.47 2.167 14.47h11.667c1.197 0 2.166-.97 2.166-2.167V3.698c0-1.197-.97-2.167-2.166-2.167zm1.144 10.771c0 .631-.513 1.144-1.144 1.144H2.167c-.631 0-1.144-.513-1.144-1.144V3.698c0-.63.513-1.144 1.144-1.144h11.667c.63 0 1.144.513 1.144 1.144v8.604z"/>
</svg>
