<svg xmlns="http://www.w3.org/2000/svg" width="16" height="16" fill="none" viewBox="0 0 16 16">
    <path fill="#fff" d="M15.531 12.05h-1.037V8.502a.469.469 0 0 0-.469-.469H8.469V4.954h5.556c.259 0 .469-.21.469-.469V.47A.469.469 0 0 0 14.025 0H1.975a.469.469 0 0 0-.469.469v4.016c0 .26.21.47.469.47h5.556v3.078H1.975a.469.469 0 0 0-.469.47v3.547H.47a.469.469 0 0 0-.469.469v3.012c0 .26.21.469.469.469h4.083v-3.95H2.444V8.97H7.53v3.08H5.49V16h5.02v-3.95H8.47V8.97h5.087v3.08h-2.108V16h4.083c.26 0 .469-.21.469-.469V12.52a.469.469 0 0 0-.469-.469z"/>
</svg>
