<svg xmlns="http://www.w3.org/2000/svg" width="16" height="16" fill="none" viewBox="0 0 16 16">
    <g fill="#fff" clip-path="url(#a)">
        <path d="M13.354 8.664a.254.254 0 0 0-.116-.03.303.303 0 0 0-.22.097l-.617.616a.289.289 0 0 0-.086.211v2.444c0 .423-.15.786-.452 1.087a1.482 1.482 0 0 1-1.087.452H2.77c-.424 0-.786-.15-1.087-.452a1.482 1.482 0 0 1-.453-1.087V3.997c0-.423.151-.785.453-1.087a1.482 1.482 0 0 1 1.087-.452h8.005c.14 0 .285.02.433.058a.31.31 0 0 0 .086.019.304.304 0 0 0 .221-.096l.472-.472a.3.3 0 0 0 .086-.278.292.292 0 0 0-.173-.222 2.65 2.65 0 0 0-1.126-.24H2.771c-.763 0-1.416.27-1.958.813A2.67 2.67 0 0 0 0 3.998v8.004c0 .764.271 1.416.813 1.958a2.668 2.668 0 0 0 1.958.813h8.005c.763 0 1.415-.27 1.958-.813a2.669 2.669 0 0 0 .813-1.958v-3.06c0-.134-.065-.227-.193-.278z"/>
        <path d="M15.77 3.141l-1.06-1.058a.75.75 0 0 0-.548-.231.75.75 0 0 0-.548.23L7.389 8.309l-2.53-2.53a.75.75 0 0 0-.549-.232.75.75 0 0 0-.548.231L2.704 6.836a.75.75 0 0 0-.231.548.75.75 0 0 0 .23.549l4.138 4.137a.75.75 0 0 0 .548.23.749.749 0 0 0 .548-.23l7.832-7.832A.75.75 0 0 0 16 3.69a.75.75 0 0 0-.23-.549z"/>
    </g>
    <defs>
        <clipPath id="a">
            <path fill="#fff" d="M0 0h16v16H0z"/>
        </clipPath>
    </defs>
</svg>
