<svg xmlns="http://www.w3.org/2000/svg" width="16" height="16" fill="none" viewBox="0 0 16 16">
    <g fill="#fff" clip-path="url(#a)">
        <path d="M14.814 1.508H3.836A1.19 1.19 0 0 0 2.65 2.694v6.821a1.19 1.19 0 0 0 1.186 1.186h7.568l1.712 1.727a.367.367 0 0 0 .264.117c.205 0 .38-.16.38-.38V10.7h1.054A1.19 1.19 0 0 0 16 9.515V2.694a1.19 1.19 0 0 0-1.186-1.186zM5.52 7.378c-.6 0-1.098-.498-1.098-1.098 0-.6.498-1.098 1.098-1.098.6 0 1.098.498 1.098 1.098 0 .6-.483 1.098-1.098 1.098zm3.85 0c-.6 0-1.098-.498-1.098-1.098 0-.6.498-1.098 1.098-1.098.6 0 1.098.498 1.098 1.098 0 .6-.498 1.098-1.098 1.098zm3.835 0c-.6 0-1.098-.498-1.098-1.098 0-.6.498-1.098 1.098-1.098.6 0 1.098.498 1.098 1.098 0 .6-.498 1.098-1.098 1.098z"/>
        <path d="M1.977 9.544V7.217h-1.2A.781.781 0 0 0 0 7.993v4.479a.77.77 0 0 0 .776.805h.688v.966c0 .132.117.249.25.249.072 0 .13-.03.175-.073l1.127-1.127h4.977a.781.781 0 0 0 .776-.776v-1.113H3.836a1.862 1.862 0 0 1-1.86-1.859z"/>
    </g>
    <defs>
        <clipPath id="a">
            <path fill="#fff" d="M0 0h16v16H0z"/>
        </clipPath>
    </defs>
</svg>
