<svg xmlns="http://www.w3.org/2000/svg" width="18" height="18" fill="none" viewBox="0 0 18 18">
    <g fill="#fff" clip-path="url(#a)">
        <path d="M3.635 6.946h1.263v3.157H3.635V6.946zM6.792 5.683h1.263v4.42H6.792v-4.42zM9.95 4.42h1.262v5.683H9.95V4.42zM13.106 6.946h1.263v3.157h-1.263V6.946zM.162 0h17.68v1.263H.162V0z"/>
        <path d="M.793 12.629h16.418V1.894H.793V12.63zm15.155-2.526h.631v.632h-.631v-.632zm-13.576 0h.631V6.314H5.53v3.789h.631V5.051h2.526v5.052h.632V3.789h2.525v6.314h.632V6.314H15v3.789h.631v.632H2.372v-.632zM.162 13.26h17.68v.632H.162v-.632zM9.318 16.16v-1.637h-.632v1.637a.947.947 0 1 0 .632 0z"/>
    </g>
    <defs>
        <clipPath id="a">
            <path fill="#fff" d="M0 0h18v18H0z"/>
        </clipPath>
    </defs>
</svg>
