<?xml version="1.0" encoding="iso-8859-1"?>
<!-- Generator: Adobe Illustrator 19.0.0, SVG Export Plug-In . SVG Version: 6.00 Build 0)  -->
<svg xmlns="http://www.w3.org/2000/svg" xmlns:xlink="http://www.w3.org/1999/xlink" version="1.1" id="Layer_1" x="0px" y="0px" viewBox="0 0 507.142 507.142" style="enable-background:new 0 0 507.142 507.142;" xml:space="preserve" width="512" height="512">
<g>
	<g>
		<g>
			<!-- #72c2dc -->
			<!-- #FD6D8A -->
			<path style="fill:#ffffff;" d="M253.415,5.815c127.505,0,230.814,103.309,230.814,230.814S380.92,467.443,253.415,467.443     c-32.791,0-91.132-19.5-119.386-31.836c-33.03,40.353-55.714,55.714-55.714,55.714V386.896     c-34.702-40.353-55.714-92.883-55.714-150.268C22.602,109.124,125.911,5.815,253.415,5.815z"/>
			<g>
			<!-- #00b9f5 -->
			<!-- #DF4861 -->
				<path style="fill:#FFFFFF;" d="M294.831,9.591c-13.443-2.436-27.269-3.776-41.416-3.776      c-127.505,0-230.814,103.309-230.814,230.814c0,57.385,21.012,109.915,55.714,150.268V491.32c0,0,22.683-15.361,55.714-55.714      c6.366,2.78,14.309,5.926,23.093,9.128C121.106,397.622,99.86,339.85,99.86,277.468C99.86,155.528,180.711,51.427,294.831,9.591      z"/>
			</g>
		</g>
		<g>
			<g id="XMLID_59_">
				<g>
				<!-- #332C6F -->
					<path style="fill:#de5656;" d="M253.415,363.974c13.212,0,23.877,10.665,23.877,23.877s-10.665,23.877-23.877,23.877       c-13.212,0-23.877-10.665-23.877-23.877S240.203,363.974,253.415,363.974z"/>
					<rect x="229.538" y="61.529" style="fill:#de5656;" width="47.755" height="270.609"/>
				</g>
			</g>
		</g>
	</g>
	<g>
		<g>
			<g id="XMLID_38_">
				<g>
					<g>
						<path style="fill:#332C6F;" d="M440.449,386.238l-11.756-9.316c31.527-39.782,48.191-87.712,48.191-138.608        c0-59.664-23.225-115.747-65.396-157.917C369.317,38.225,313.234,15,253.571,15c-44.997,0-88.363,13.312-125.409,38.495        l-8.433-12.405C159.272,14.208,205.554,0,253.571,0c63.67,0,123.52,24.785,168.525,69.789        c45.004,45.004,69.789,104.854,69.789,168.524C491.885,292.626,474.098,343.778,440.449,386.238z"/>
					</g>
					<g>
						<path style="fill:#332C6F;" d="M70.97,507.142V391.337c-35.948-42.813-55.713-97.041-55.713-153.024        c0-69.539,30.258-135.435,83.015-180.79l9.778,11.375C58.612,111.401,30.257,173.15,30.257,238.313        c0,53.331,19.142,104.96,53.9,145.378l1.813,2.109v91.52c9.582-8.424,24.458-22.848,42.41-44.779l3.599-4.396l5.206,2.273        c28.827,12.586,85.751,31.21,116.385,31.21c57.635,0,112.337-21.877,154.032-61.603l10.348,10.86        c-44.497,42.395-102.874,65.742-164.379,65.742c-31.353,0-85.309-16.996-117.175-30.244        c-31.391,37.518-52.791,52.203-53.719,52.832L70.97,507.142z"/>
					</g>
					<g>
						<path style="fill:#332C6F;" d="M284.948,341.323h-62.754V55.713h62.754V341.323z M237.194,326.323h32.754V70.713h-32.754        V326.323z"/>
					</g>
					<g>
						<path style="fill:#332C6F;" d="M253.571,420.914c-17.301,0-31.377-14.076-31.377-31.377c0-17.302,14.076-31.377,31.377-31.377        s31.377,14.076,31.377,31.377C284.948,406.838,270.872,420.914,253.571,420.914z M253.571,373.159        c-9.03,0-16.377,7.347-16.377,16.377c0,9.03,7.347,16.377,16.377,16.377c9.031,0,16.377-7.347,16.377-16.377        C269.948,380.506,262.601,373.159,253.571,373.159z"/>
					</g>
					<g>
						<path style="fill:#FFFFFF;" d="M377.851,382.803l-9.789-11.366c38.81-33.423,61.067-81.944,61.067-133.124h15        C444.13,293.863,419.972,346.528,377.851,382.803z"/>
					</g>
					<g>
						<path style="fill:#FFFFFF;" d="M78.011,238.313h-15c0-69.781,38.095-133.909,99.418-167.357l7.183,13.168        C113.111,114.943,78.011,174.025,78.011,238.313z"/>
					</g>
					<g>
						<rect x="62.552" y="254.691" style="fill:#332C6F;" width="15.918" height="15"/>
					</g>
					<g>
						<rect x="62.552" y="286.527" style="fill:#332C6F;" width="15.918" height="15"/>
					</g>
					<g>
						<rect x="428.671" y="206.937" style="fill:#332C6F;" width="15.918" height="15"/>
					</g>
					<g>
						<rect x="428.671" y="175.1" style="fill:#FFFFFF;" width="15.918" height="15"/>
					</g>
				</g>
			</g>
		</g>
	</g>
</g>
<!-- #231F20 -->
</svg>