<svg height="681pt" viewBox="-77 -21 681 681.33494" width="681pt" xmlns="http://www.w3.org/2000/svg"><path fill="#332C6F" d="m482.835938 435.707031c-6.671876-1.753906-13.507813 2.242188-15.257813 8.917969-9.199219 35.089844-26.847656 67.507812-51.265625 94.476562-15.476562-13.917968-32.40625-25.726562-50.429688-35.277343 16.441407-36.816407 24.796876-76.070313 24.796876-116.878907 0-40.808593-8.355469-80.058593-24.796876-116.878906 18.027344-9.558594 34.964844-21.371094 50.449219-35.296875 29.777344 32.808594 49.03125 72.933594 55.902344 116.78125 1.074219 6.863281 7.800781 11.621094 14.632813 10.355469 6.566406-1.21875 11.097656-7.632812 10.0625-14.226562-7.289063-46.539063-27.128907-89.304688-57.722657-124.796876 48.589844-12.757812 84.535157-57.050781 84.535157-109.589843 0-62.46875-50.820313-113.292969-113.292969-113.292969-72.4375 0-127.445313 70.261719-109.957031 140.613281-17.144532-3.617187-35.007813-5.847656-52.558594-5.46875-66.742188.078125-129.578125 25.996094-176.980469 73-.050781.046875-.101563.085938-.148437.136719-47.964844 47.628906-74.378907 111.078125-74.378907 178.664062 0 67.25 26.164063 130.402344 73.683594 177.957032.210937.238281.414063.480468.644531.707031 47.480469 47.148437 110.460938 73.117187 177.363282 73.136719 3.121093.03125 6.410156-.078125 9.527343-.195313 63.300781-2.34375 122.953125-28.25 167.957031-72.941406.015626-.015625.023438-.03125.039063-.042969.007813-.007812.011719-.011718.019531-.015625.007813-.011719.011719-.023437.023438-.03125 31.890625-31.699219 54.742187-71.308593 66.078125-114.554687 1.75-6.675782-2.242188-13.507813-8.925781-15.257813-6.671876-1.753906 6.683593 1.75 0 0zm-234.660157 175.996094c-33.464843-20.699219-59.871093-50.816406-83.996093-95.886719 26.675781-10.671875 54.871093-16.082031 83.996093-16.082031 29.21875 0 57.605469 5.511719 83.980469 16.019531-24.148438 45.128906-50.542969 75.257813-83.980469 95.949219zm-106.691406-85.296875c18.613281 35.039062 38.652344 61.96875 62.007813 82.960938-39.105469-7.78125-75.386719-25.761719-105.628907-52.597657 13.324219-11.820312 27.929688-21.984375 43.621094-30.363281zm213.386719-.109375c15.554687 8.3125 30.195312 18.507813 43.640625 30.441406-30.128907 26.710938-66.503907 44.753907-105.609375 52.574219 23.328125-21.003906 43.351562-47.945312 61.96875-83.015625zm10.8125-139.351563c0 37.113282-7.566406 72.808594-22.457032 106.300782-29.789062-12.140625-61.9375-18.511719-95.050781-18.511719-32.988281 0-64.902343 6.265625-95.070312 18.597656-14.910157-33.511719-22.488281-69.238281-22.488281-106.386719 0-37.152343 7.578124-72.875 22.488281-106.390624 30.160156 12.339843 62.082031 18.597656 95.070312 18.597656 33.113281 0 65.261719-6.371094 95.054688-18.507813 14.886719 33.492188 22.453125 69.183594 22.453125 106.300781zm-33.566406-128.792968c-26.367188 10.492187-54.738282 16.003906-83.941407 16.003906-29.128906 0-57.320312-5.410156-83.996093-16.082031 24.101562-45.035157 50.523437-75.152344 84.058593-95.886719 33.332031 20.640625 59.703125 50.78125 83.878907 95.964844zm-190.628907-10.667969c-15.6875-8.371094-30.277343-18.527344-43.597656-30.332031 30.246094-26.84375 66.527344-44.835938 105.628906-52.621094-23.386719 21.003906-43.429687 47.929688-62.03125 82.953125zm268.960938-222.484375c48.683593 0 88.292969 39.609375 88.292969 88.292969 0 48.691406-39.609376 88.300781-88.292969 88.300781-48.6875 0-88.296875-39.609375-88.296875-88.300781 0-48.683594 39.609375-88.292969 88.296875-88.292969zm-20.84375 199.660156c-10.941407 8.761719-22.570313 16.4375-34.769531 22.957032-18.636719-35.101563-38.644532-62.058594-61.914063-83.035157 6.421875 1.28125 12.777344 2.855469 19.054687 4.6875 16.222657 28.425781 44.394532 49.183594 77.628907 55.390625zm-309.546875 10.101563c15.332031 13.769531 32.21875 25.550781 50.410156 35.183593-16.476562 36.851563-24.851562 76.144532-24.851562 117 0 40.855469 8.375 80.144532 24.851562 117-18.191406 9.632813-35.078125 21.410157-50.410156 35.179688-37.902344-41.773438-58.636719-95.355469-58.636719-152.179688 0-56.824218 20.734375-110.40625 58.636719-152.183593zm0 0"/><path d="m410.449219 134.246094c6.902343 0 12.5-5.601563 12.5-12.5v-55.976563c0-16.050781-25-16.078125-25 0v55.976563c0 6.902344 5.59375 12.5 12.5 12.5zm0 0"/><path d="m410.449219 150.902344c-6.6875 0-12.390625 5.601562-12.480469 12.289062-.085938 6.933594 5.59375 12.667969 12.511719 12.671875 6.894531.007813 12.601562-5.859375 12.460937-12.757812-.144531-6.632813-5.863281-12.203125-12.492187-12.203125zm0 0"/><path d="m489.734375 386.15625c-5.214844 0-9.980469 3.359375-11.75 8.257812-1.769531 4.894532-.234375 10.554688 3.785156 13.871094 4.03125 3.316406 9.824219 3.769532 14.316407 1.125 4.484374-2.640625 6.914062-7.992187 5.921874-13.101562-1.125-5.816406-6.339843-10.152344-12.273437-10.152344zm0 0"/></svg>