<svg xmlns="http://www.w3.org/2000/svg" width="16" height="16" fill="none" viewBox="0 0 16 16">
    <path fill="#fff" d="M9.221 2.688H5.253v1.406H9.22V2.687zM12.601 14.14H1.81V16H12.6v-1.86z"/>
    <path fill="#fff" d="M13.049 1.82h-1.11V0H2.472v13.202h9.469v-1.024a1.596 1.596 0 0 0 2.25-1.452V4.029l-1.141-2.21zM5.818 9.237h-.932v-.932h.932v.932zm1.854 0h-.933v-.932h.933v.932zm1.854 0h-.933v-.932h.933v.932zm.633-4.206H4.315V1.75h5.844v3.281zm3.094 5.695a.657.657 0 0 1-1.313 0V5.778h1.313v4.948zm0-5.885H11.94V2.757h.538l.775 1.5v.584z"/>
</svg>
